<svg width="120" height="168" viewBox="0 0 120 168" fill="none" xmlns="http://www.w3.org/2000/svg">
<path d="M120 27.5587C120 42.6945 107.73 54.9647 92.594 54.9647C77.4579 54.9647 55.1432 38.9675 37.1618 27.5587C71.7604 9.08131 77.4579 0.152649 92.594 0.152649C107.73 0.152649 120 12.4227 120 27.5587Z" fill="white"/>
<path d="M3.94721 153.595C-3.72531 140.469 0.695834 123.608 13.8221 115.935L76.0563 79.5582C89.1825 71.8858 106.043 76.307 113.716 89.4333C121.388 102.559 116.967 119.42 103.841 127.093L41.6068 163.47C28.4804 171.142 11.6197 166.721 3.94721 153.595Z" fill="white"/>
<path d="M3.57042 51.524C11.1078 38.0829 28.1141 33.2968 41.5552 40.8344L104.744 76.2685C118.883 84.1974 123.921 102.085 115.999 116.228C113.354 120.95 109.455 124.849 104.733 127.494L70.783 146.515L70.0853 127.277C69.9759 124.263 69.9958 121.924 67.833 119.822C67.1063 119.115 65.0032 117.989 64.1197 117.492L46.4846 107.579L14.26 89.5087C0.818912 81.9715 -3.96696 64.9651 3.57042 51.524Z" fill="white"/>
</svg>
